<svg width="103" height="15" viewBox="0 0 103 15" fill="none" xmlns="http://www.w3.org/2000/svg">
<path d="M102.495 11.3482H90.8965V8.55745L95.584 4.82925L97.8733 3.39029V3.17227L95.584 3.30308H91.2236V0.425171H102.168V3.23768L97.1102 7.1403L95.039 8.42664V8.64466L97.1102 8.49205H102.495V11.3482Z" fill="#72B944"/>
<path d="M76.7946 11.3482H74.3765V3.27156H76.6173V5.75419H76.7624C76.9719 4.40003 77.9392 3.11035 80.051 3.11035C82.2596 3.11035 83.3075 4.52899 83.3075 6.31842V11.3482H80.8893V7.12446C80.8893 5.83479 80.3573 5.28668 78.8742 5.28668C77.3427 5.28668 76.7946 5.89927 76.7946 7.26955V11.3482Z" fill="black"/>
<path d="M68.9984 11.5094C66.3062 11.5094 64.4684 10.1874 64.4684 7.31792C64.4684 4.73857 66.29 3.11035 68.95 3.11035C71.5938 3.11035 73.351 4.49675 73.351 7.02774C73.351 7.31792 73.3188 7.52749 73.2865 7.80154H66.7092C66.7737 9.04286 67.354 9.57485 68.9178 9.57485C70.3525 9.57485 70.8523 9.20407 70.8523 8.51087V8.34966H73.2704V8.52699C73.2704 10.2842 71.5616 11.5094 68.9984 11.5094ZM68.9016 4.9965C67.4669 4.9965 66.8543 5.48013 66.7414 6.52799H71.0296C70.9651 5.46401 70.3203 4.9965 68.9016 4.9965Z" fill="black"/>
<path d="M51.1648 11.3482H48.7467V3.27156H50.9875V5.72194H51.1165C51.3099 4.36778 52.116 3.11035 54.1472 3.11035C56.0172 3.11035 56.9684 4.25494 57.1457 5.75419H57.2908C57.4842 4.38391 58.3064 3.11035 60.386 3.11035C62.4656 3.11035 63.4812 4.48063 63.4812 6.31842V11.3482H61.0631V7.12446C61.0631 5.78643 60.5956 5.28668 59.2092 5.28668C57.7422 5.28668 57.323 5.86703 57.323 7.26955V11.3482H54.9049V7.12446C54.9049 5.78643 54.4374 5.28668 53.051 5.28668C51.584 5.28668 51.1648 5.86703 51.1648 7.26955V11.3482Z" fill="black"/>
<path d="M47.841 11.3482H45.842C43.9559 11.3482 42.8113 10.4616 42.8113 8.43032V5.27061H41.5377V3.27162H42.8113V1.70789H45.2294V3.27162H47.841V5.27061H45.2294V8.15626C45.2294 8.96231 45.5357 9.17188 46.3901 9.17188H47.841V11.3482Z" fill="black"/>
<path d="M36.0514 11.3482H33.6333V3.27156H35.8741V5.41565H36.0192C36.2449 4.10985 37.0993 3.11035 38.7275 3.11035C40.5331 3.11035 41.2746 4.35166 41.2746 5.93152V7.26955H38.8565V6.43127C38.8565 5.54461 38.5018 5.15771 37.5184 5.15771C36.4383 5.15771 36.0514 5.65746 36.0514 6.67308V11.3482Z" fill="black"/>
<path d="M26.733 11.5094C24.992 11.5094 23.9441 10.7033 23.9441 9.34915C23.9441 8.15621 24.8308 7.41464 26.5557 7.23731L30.0217 6.88265V6.57635C30.0217 5.52849 29.5542 5.23832 28.2645 5.23832C27.0393 5.23832 26.5396 5.56073 26.5396 6.47963V6.54411H24.1053V6.49575C24.1053 4.49675 25.7819 3.11035 28.4419 3.11035C31.1341 3.11035 32.4076 4.49675 32.4076 6.60859V11.3482H30.1507V9.49424H30.0217C29.6509 10.7517 28.5225 11.5094 26.733 11.5094ZM26.3784 9.18794C26.3784 9.62321 26.7169 9.80054 27.4262 9.80054C29.0706 9.80054 29.9572 9.41364 30.0217 8.26905L27.2167 8.59147C26.6363 8.63983 26.3784 8.80104 26.3784 9.18794Z" fill="black"/>
<path d="M16.1679 14.0887H13.7498V3.27156H15.9906V5.48013H16.1518C16.442 3.93252 17.4737 3.11035 19.376 3.11035C21.8586 3.11035 23.245 4.75469 23.245 7.31792C23.245 9.88115 21.8908 11.5094 19.4566 11.5094C17.5865 11.5094 16.5548 10.5905 16.2807 9.17182H16.1679V14.0887ZM16.1679 7.43076C16.1679 8.81716 17.0062 9.30079 18.5216 9.30079C20.0692 9.30079 20.7946 8.78492 20.7946 7.31792C20.7946 5.83479 20.0692 5.33504 18.5377 5.33504C16.9739 5.33504 16.1679 5.86703 16.1679 7.3018V7.43076Z" fill="black"/>
<path d="M2.96497 11.3479H0.256653L4.98009 0.546875H8.42997L13.1856 11.3479H10.4128L9.39723 8.96201H3.99671L2.96497 11.3479ZM5.94734 4.43202L4.93173 6.78568H8.46221L7.44659 4.43202L6.78563 2.75544H6.6083L5.94734 4.43202Z" fill="black"/>
</svg>
